<?xml version="1.0" standalone="no"?>
<!DOCTYPE svg PUBLIC "-//W3C//DTD SVG 20010904//EN"
 "http://www.w3.org/TR/2001/REC-SVG-20010904/DTD/svg10.dtd">
<svg version="1.0" xmlns="http://www.w3.org/2000/svg"
 width="700.000000pt" height="700.000000pt" viewBox="0 0 700.000000 700.000000"
 preserveAspectRatio="xMidYMid meet">
<metadata>
Created by potrace 1.14, written by Peter Selinger 2001-2017
</metadata>
<g transform="translate(0.000000,700.000000) scale(0.100000,-0.100000)"
fill="#000000" stroke="none">
<path d="M6036 6980 c-54 -27 -82 -55 -108 -108 -20 -43 -21 -58 -23 -391 -1
-190 -3 -348 -3 -351 -1 -3 -1238 -5 -2749 -5 -2266 1 -2758 -1 -2808 -12
-165 -37 -287 -156 -330 -318 -13 -52 -15 -340 -15 -2506 0 -1611 3 -2465 10
-2500 32 -169 189 -321 356 -345 68 -10 6151 -11 6244 -1 133 13 246 84 321
200 75 116 70 -88 67 2677 l-3 2475 -31 65 c-56 118 -147 200 -265 241 -53 18
-89 22 -209 23 l-145 2 -1 349 c-1 384 -2 387 -63 457 -55 63 -172 85 -245 48z
m525 -1309 c5 -96 0 -1283 -5 -1289 -4 -4 -1382 -7 -3062 -7 l-3054 0 -1 25
c-1 32 -1 1285 0 1286 1 1 1378 1 3061 1 2817 0 3060 -1 3061 -16z m0 -1750
c0 -9 1 -698 1 -1531 l1 -1515 -3061 0 c-2071 0 -3062 3 -3063 10 -5 59 -2
3021 3 3034 6 17 133 18 3062 18 2780 0 3056 -2 3057 -16z"/>
<path d="M1025 5239 c-101 -29 -171 -161 -140 -266 28 -92 105 -154 198 -157
130 -6 227 91 227 225 0 139 -144 239 -285 198z"/>
<path d="M1906 5240 c-151 -46 -205 -245 -96 -357 58 -59 126 -79 209 -62 44
9 63 20 100 58 51 51 70 98 66 164 -8 140 -145 237 -279 197z"/>
<path d="M2775 5239 c-43 -12 -102 -65 -126 -111 -13 -25 -21 -61 -21 -96 -2
-93 45 -162 135 -202 38 -17 85 -18 746 -17 l706 2 42 22 c133 72 156 262 42
357 -69 58 -41 56 -798 55 -383 0 -709 -5 -726 -10z"/>
<path d="M4957 5236 c-120 -43 -177 -184 -122 -299 22 -46 83 -100 129 -114
83 -26 188 7 239 74 131 174 -42 411 -246 339z"/>
<path d="M5836 5238 c-54 -15 -121 -84 -136 -140 -30 -109 15 -213 113 -265
48 -25 142 -22 195 5 46 24 97 87 107 130 13 63 13 75 -1 122 -36 122 -149
182 -278 148z"/>
<path d="M1782 3484 c-660 -119 -1058 -785 -850 -1424 123 -381 470 -673 873
-736 61 -9 266 -12 305 -3 19 4 49 10 65 12 171 26 390 135 526 263 201 187
314 404 354 679 7 47 8 242 2 253 -3 4 -7 30 -11 57 -3 28 -15 82 -27 120 -11
39 -23 79 -26 90 -4 11 -25 57 -49 103 -155 300 -422 507 -749 579 -93 20
-320 24 -413 7z m411 -462 c150 -54 286 -173 357 -311 170 -334 37 -734 -300
-897 -93 -45 -159 -58 -285 -58 -106 0 -130 3 -200 28 -235 82 -395 266 -443
511 -4 17 -6 75 -5 130 1 99 17 170 60 265 68 150 227 287 400 344 118 39 289
34 416 -12z"/>
<path d="M1935 2620 c-175 -29 -245 -241 -120 -365 52 -52 100 -69 176 -62 82
7 143 52 179 130 34 74 7 191 -57 249 -41 37 -118 58 -178 48z"/>
<path d="M4929 3496 c-2 -2 -29 -6 -59 -9 -30 -3 -94 -17 -142 -31 -340 -99
-617 -362 -729 -691 -16 -47 -31 -98 -34 -113 -37 -197 -36 -338 6 -507 75
-310 285 -573 569 -712 117 -58 119 -58 208 -82 154 -42 356 -48 502 -15 14 3
39 8 55 11 48 8 202 72 269 111 280 163 473 434 531 748 54 285 -14 594 -183
834 -60 86 -191 214 -277 271 -180 120 -367 179 -581 185 -72 2 -133 2 -135 0z
m287 -461 c186 -53 353 -206 425 -387 65 -165 59 -358 -15 -515 -111 -233
-317 -370 -571 -379 -195 -7 -356 57 -494 196 -250 253 -246 668 9 918 106
105 236 171 370 187 30 4 56 8 57 9 7 7 170 -15 219 -29z"/>
<path d="M4967 2614 c-96 -33 -151 -110 -151 -208 0 -124 92 -216 215 -216
187 0 285 214 164 359 -54 63 -152 91 -228 65z"/>
</g>
</svg>
